<svg id="visual" viewBox="0 0 900 450" width="900" height="450" xmlns="http://www.w3.org/2000/svg" xmlns:xlink="http://www.w3.org/1999/xlink" version="1.1"><path d="M0 411L15 394.3C30 377.7 60 344.3 90 342.7C120 341 150 371 180 382.7C210 394.3 240 387.7 270 375.5C300 363.3 330 345.7 360 349.7C390 353.7 420 379.3 450 380.8C480 382.3 510 359.7 540 355.5C570 351.3 600 365.7 630 374.7C660 383.7 690 387.3 720 389.3C750 391.3 780 391.7 810 393.2C840 394.7 870 397.3 885 398.7L900 400L900 451L885 451C870 451 840 451 810 451C780 451 750 451 720 451C690 451 660 451 630 451C600 451 570 451 540 451C510 451 480 451 450 451C420 451 390 451 360 451C330 451 300 451 270 451C240 451 210 451 180 451C150 451 120 451 90 451C60 451 30 451 15 451L0 451Z" fill="#4FACF7" stroke-linecap="round" stroke-linejoin="miter"></path></svg>